<svg width="1363" height="163" viewBox="0 0 1363 163" fill="none" xmlns="http://www.w3.org/2000/svg">
<path d="M0 15C0 6.71573 6.71573 0 15 0H37V163H15C6.71573 163 0 156.284 0 148V15Z" fill="#424242"/>
<rect width="1097" height="163" transform="translate(37)" fill="#F0F0F0"/>
<path d="M96.1289 43.9375H99.1055L103.488 56.4648L107.871 43.9375H110.848L104.684 61H102.293L96.1289 43.9375ZM94.5234 43.9375H97.4883L98.0273 56.1484V61H94.5234V43.9375ZM109.488 43.9375H112.465V61H108.949V56.1484L109.488 43.9375ZM122.836 57.9648V48.3203H126.211V61H123.035L122.836 57.9648ZM123.211 55.3633L124.207 55.3398C124.207 56.1836 124.109 56.9688 123.914 57.6953C123.719 58.4141 123.426 59.0391 123.035 59.5703C122.645 60.0938 122.152 60.5039 121.559 60.8008C120.965 61.0898 120.266 61.2344 119.461 61.2344C118.844 61.2344 118.273 61.1484 117.75 60.9766C117.234 60.7969 116.789 60.5195 116.414 60.1445C116.047 59.7617 115.758 59.2734 115.547 58.6797C115.344 58.0781 115.242 57.3555 115.242 56.5117V48.3203H118.617V56.5352C118.617 56.9102 118.66 57.2266 118.746 57.4844C118.84 57.7422 118.969 57.9531 119.133 58.1172C119.297 58.2812 119.488 58.3984 119.707 58.4688C119.934 58.5391 120.184 58.5742 120.457 58.5742C121.152 58.5742 121.699 58.4336 122.098 58.1523C122.504 57.8711 122.789 57.4883 122.953 57.0039C123.125 56.5117 123.211 55.9648 123.211 55.3633ZM135.645 57.4961C135.645 57.2539 135.574 57.0352 135.434 56.8398C135.293 56.6445 135.031 56.4648 134.648 56.3008C134.273 56.1289 133.73 55.9727 133.02 55.832C132.379 55.6914 131.781 55.5156 131.227 55.3047C130.68 55.0859 130.203 54.8242 129.797 54.5195C129.398 54.2148 129.086 53.8555 128.859 53.4414C128.633 53.0195 128.52 52.5391 128.52 52C128.52 51.4688 128.633 50.9688 128.859 50.5C129.094 50.0312 129.426 49.6172 129.855 49.2578C130.293 48.8906 130.824 48.6055 131.449 48.4023C132.082 48.1914 132.793 48.0859 133.582 48.0859C134.684 48.0859 135.629 48.2617 136.418 48.6133C137.215 48.9648 137.824 49.4492 138.246 50.0664C138.676 50.6758 138.891 51.3711 138.891 52.1523H135.516C135.516 51.8242 135.445 51.5312 135.305 51.2734C135.172 51.0078 134.961 50.8008 134.672 50.6523C134.391 50.4961 134.023 50.418 133.57 50.418C133.195 50.418 132.871 50.4844 132.598 50.6172C132.324 50.7422 132.113 50.9141 131.965 51.1328C131.824 51.3438 131.754 51.5781 131.754 51.8359C131.754 52.0312 131.793 52.207 131.871 52.3633C131.957 52.5117 132.094 52.6484 132.281 52.7734C132.469 52.8984 132.711 53.0156 133.008 53.125C133.312 53.2266 133.688 53.3203 134.133 53.4062C135.047 53.5938 135.863 53.8398 136.582 54.1445C137.301 54.4414 137.871 54.8477 138.293 55.3633C138.715 55.8711 138.926 56.5391 138.926 57.3672C138.926 57.9297 138.801 58.4453 138.551 58.9141C138.301 59.3828 137.941 59.793 137.473 60.1445C137.004 60.4883 136.441 60.7578 135.785 60.9531C135.137 61.1406 134.406 61.2344 133.594 61.2344C132.414 61.2344 131.414 61.0234 130.594 60.6016C129.781 60.1797 129.164 59.6445 128.742 58.9961C128.328 58.3398 128.121 57.668 128.121 56.9805H131.32C131.336 57.4414 131.453 57.8125 131.672 58.0938C131.898 58.375 132.184 58.5781 132.527 58.7031C132.879 58.8281 133.258 58.8906 133.664 58.8906C134.102 58.8906 134.465 58.832 134.754 58.7148C135.043 58.5898 135.262 58.4258 135.41 58.2227C135.566 58.0117 135.645 57.7695 135.645 57.4961ZM146.953 61.2344C145.969 61.2344 145.086 61.0781 144.305 60.7656C143.523 60.4453 142.859 60.0039 142.312 59.4414C141.773 58.8789 141.359 58.2266 141.07 57.4844C140.781 56.7344 140.637 55.9375 140.637 55.0938V54.625C140.637 53.6641 140.773 52.7852 141.047 51.9883C141.32 51.1914 141.711 50.5 142.219 49.9141C142.734 49.3281 143.359 48.8789 144.094 48.5664C144.828 48.2461 145.656 48.0859 146.578 48.0859C147.477 48.0859 148.273 48.2344 148.969 48.5312C149.664 48.8281 150.246 49.25 150.715 49.7969C151.191 50.3438 151.551 51 151.793 51.7656C152.035 52.5234 152.156 53.3672 152.156 54.2969V55.7031H142.078V53.4531H148.84V53.1953C148.84 52.7266 148.754 52.3086 148.582 51.9414C148.418 51.5664 148.168 51.2695 147.832 51.0508C147.496 50.832 147.066 50.7227 146.543 50.7227C146.098 50.7227 145.715 50.8203 145.395 51.0156C145.074 51.2109 144.812 51.4844 144.609 51.8359C144.414 52.1875 144.266 52.6016 144.164 53.0781C144.07 53.5469 144.023 54.0625 144.023 54.625V55.0938C144.023 55.6016 144.094 56.0703 144.234 56.5C144.383 56.9297 144.59 57.3008 144.855 57.6133C145.129 57.9258 145.457 58.168 145.84 58.3398C146.23 58.5117 146.672 58.5977 147.164 58.5977C147.773 58.5977 148.34 58.4805 148.863 58.2461C149.395 58.0039 149.852 57.6406 150.234 57.1562L151.875 58.9375C151.609 59.3203 151.246 59.6875 150.785 60.0391C150.332 60.3906 149.785 60.6797 149.145 60.9062C148.504 61.125 147.773 61.2344 146.953 61.2344ZM157.453 51.0859V61H154.078V48.3203H157.254L157.453 51.0859ZM161.273 48.2383L161.215 51.3672C161.051 51.3438 160.852 51.3242 160.617 51.3086C160.391 51.2852 160.184 51.2734 159.996 51.2734C159.52 51.2734 159.105 51.3359 158.754 51.4609C158.41 51.5781 158.121 51.7539 157.887 51.9883C157.66 52.2227 157.488 52.5078 157.371 52.8438C157.262 53.1797 157.199 53.5625 157.184 53.9922L156.504 53.7812C156.504 52.9609 156.586 52.207 156.75 51.5195C156.914 50.8242 157.152 50.2188 157.465 49.7031C157.785 49.1875 158.176 48.7891 158.637 48.5078C159.098 48.2266 159.625 48.0859 160.219 48.0859C160.406 48.0859 160.598 48.1016 160.793 48.1328C160.988 48.1562 161.148 48.1914 161.273 48.2383Z" fill="#888888"/>
<path d="M118.594 98.4219V104.75H101.086V98.4219H118.594ZM103.828 84.875V119H95.6016V84.875H103.828ZM124.125 84.875V119H115.922V84.875H124.125ZM127.992 106.578V106.086C127.992 104.227 128.258 102.516 128.789 100.953C129.32 99.375 130.102 98.0078 131.133 96.8516C132.164 95.6953 133.438 94.7969 134.953 94.1562C136.469 93.5 138.219 93.1719 140.203 93.1719C142.203 93.1719 143.961 93.5 145.477 94.1562C147.008 94.7969 148.289 95.6953 149.32 96.8516C150.352 98.0078 151.133 99.375 151.664 100.953C152.195 102.516 152.461 104.227 152.461 106.086V106.578C152.461 108.422 152.195 110.133 151.664 111.711C151.133 113.273 150.352 114.641 149.32 115.812C148.289 116.969 147.016 117.867 145.5 118.508C143.984 119.148 142.234 119.469 140.25 119.469C138.266 119.469 136.508 119.148 134.977 118.508C133.445 117.867 132.164 116.969 131.133 115.812C130.102 114.641 129.32 113.273 128.789 111.711C128.258 110.133 127.992 108.422 127.992 106.578ZM135.891 106.086V106.578C135.891 107.531 135.961 108.422 136.102 109.25C136.242 110.078 136.477 110.805 136.805 111.43C137.133 112.039 137.578 112.516 138.141 112.859C138.703 113.203 139.406 113.375 140.25 113.375C141.078 113.375 141.766 113.203 142.312 112.859C142.875 112.516 143.32 112.039 143.648 111.43C143.977 110.805 144.211 110.078 144.352 109.25C144.492 108.422 144.562 107.531 144.562 106.578V106.086C144.562 105.164 144.492 104.297 144.352 103.484C144.211 102.656 143.977 101.93 143.648 101.305C143.32 100.664 142.875 100.164 142.312 99.8047C141.75 99.4453 141.047 99.2656 140.203 99.2656C139.375 99.2656 138.68 99.4453 138.117 99.8047C137.57 100.164 137.133 100.664 136.805 101.305C136.477 101.93 136.242 102.656 136.102 103.484C135.961 104.297 135.891 105.164 135.891 106.086ZM163.688 111.453L168.375 93.6406H173.32L171.562 102.57L166.922 119H162.961L163.688 111.453ZM161.836 93.6406L164.742 111.312L165.07 119H160.266L154.266 93.6406H161.836ZM177.492 110.938L180.422 93.6406H187.992L182.039 119H177.234L177.492 110.938ZM173.883 93.6406L178.617 111.406L179.344 119H175.336L170.789 102.617L169.102 93.6406H173.883ZM218.297 84.875V119H210.07V84.875H218.297ZM228.562 84.875V91.2266H200.039V84.875H228.562ZM225.773 106.578V106.086C225.773 104.227 226.039 102.516 226.57 100.953C227.102 99.375 227.883 98.0078 228.914 96.8516C229.945 95.6953 231.219 94.7969 232.734 94.1562C234.25 93.5 236 93.1719 237.984 93.1719C239.984 93.1719 241.742 93.5 243.258 94.1562C244.789 94.7969 246.07 95.6953 247.102 96.8516C248.133 98.0078 248.914 99.375 249.445 100.953C249.977 102.516 250.242 104.227 250.242 106.086V106.578C250.242 108.422 249.977 110.133 249.445 111.711C248.914 113.273 248.133 114.641 247.102 115.812C246.07 116.969 244.797 117.867 243.281 118.508C241.766 119.148 240.016 119.469 238.031 119.469C236.047 119.469 234.289 119.148 232.758 118.508C231.227 117.867 229.945 116.969 228.914 115.812C227.883 114.641 227.102 113.273 226.57 111.711C226.039 110.133 225.773 108.422 225.773 106.578ZM233.672 106.086V106.578C233.672 107.531 233.742 108.422 233.883 109.25C234.023 110.078 234.258 110.805 234.586 111.43C234.914 112.039 235.359 112.516 235.922 112.859C236.484 113.203 237.188 113.375 238.031 113.375C238.859 113.375 239.547 113.203 240.094 112.859C240.656 112.516 241.102 112.039 241.43 111.43C241.758 110.805 241.992 110.078 242.133 109.25C242.273 108.422 242.344 107.531 242.344 106.578V106.086C242.344 105.164 242.273 104.297 242.133 103.484C241.992 102.656 241.758 101.93 241.43 101.305C241.102 100.664 240.656 100.164 240.094 99.8047C239.531 99.4453 238.828 99.2656 237.984 99.2656C237.156 99.2656 236.461 99.4453 235.898 99.8047C235.352 100.164 234.914 100.664 234.586 101.305C234.258 101.93 234.023 102.656 233.883 103.484C233.742 104.297 233.672 105.164 233.672 106.086ZM266.086 84.875H279.516C282.141 84.875 284.422 85.2656 286.359 86.0469C288.297 86.8281 289.789 87.9844 290.836 89.5156C291.898 91.0469 292.43 92.9375 292.43 95.1875C292.43 97.1406 292.125 98.7734 291.516 100.086C290.906 101.398 290.055 102.484 288.961 103.344C287.883 104.188 286.625 104.883 285.188 105.43L282.492 106.953H271.219L271.172 100.602H279.516C280.562 100.602 281.43 100.414 282.117 100.039C282.805 99.6641 283.32 99.1328 283.664 98.4453C284.023 97.7422 284.203 96.9062 284.203 95.9375C284.203 94.9531 284.023 94.1094 283.664 93.4062C283.305 92.7031 282.773 92.1641 282.07 91.7891C281.383 91.4141 280.531 91.2266 279.516 91.2266H274.312V119H266.086V84.875ZM284.766 119L277.219 103.906L285.938 103.859L293.578 118.648V119H284.766ZM311.836 112.836V93.6406H319.758V119H312.352L311.836 112.836ZM312.586 107.68L314.648 107.633C314.648 109.336 314.445 110.914 314.039 112.367C313.633 113.805 313.031 115.055 312.234 116.117C311.453 117.18 310.484 118.008 309.328 118.602C308.188 119.18 306.867 119.469 305.367 119.469C304.117 119.469 302.969 119.297 301.922 118.953C300.891 118.594 300 118.039 299.25 117.289C298.5 116.523 297.914 115.547 297.492 114.359C297.086 113.156 296.883 111.719 296.883 110.047V93.6406H304.781V110.094C304.781 110.656 304.852 111.141 304.992 111.547C305.133 111.953 305.336 112.297 305.602 112.578C305.867 112.844 306.195 113.047 306.586 113.188C306.992 113.312 307.453 113.375 307.969 113.375C309.156 113.375 310.086 113.125 310.758 112.625C311.43 112.125 311.898 111.445 312.164 110.586C312.445 109.727 312.586 108.758 312.586 107.68ZM331.875 99.0547V119H323.977V93.6406H331.383L331.875 99.0547ZM330.938 105.453L329.086 105.5C329.086 103.562 329.32 101.836 329.789 100.32C330.258 98.7891 330.922 97.4922 331.781 96.4297C332.641 95.3672 333.664 94.5625 334.852 94.0156C336.055 93.4531 337.391 93.1719 338.859 93.1719C340.031 93.1719 341.102 93.3438 342.07 93.6875C343.055 94.0312 343.898 94.5859 344.602 95.3516C345.32 96.1172 345.867 97.1328 346.242 98.3984C346.633 99.6484 346.828 101.195 346.828 103.039V119H338.883V103.016C338.883 102 338.742 101.227 338.461 100.695C338.18 100.148 337.773 99.7734 337.242 99.5703C336.711 99.3672 336.062 99.2656 335.297 99.2656C334.484 99.2656 333.797 99.4219 333.234 99.7344C332.672 100.047 332.219 100.484 331.875 101.047C331.547 101.594 331.305 102.242 331.148 102.992C331.008 103.742 330.938 104.562 330.938 105.453ZM363.773 108.195H357.047C357.047 106.82 357.141 105.609 357.328 104.562C357.531 103.5 357.875 102.547 358.359 101.703C358.844 100.859 359.5 100.078 360.328 99.3594C361.062 98.75 361.695 98.1641 362.227 97.6016C362.758 97.0391 363.164 96.4688 363.445 95.8906C363.727 95.3125 363.867 94.6953 363.867 94.0391C363.867 93.2266 363.75 92.5625 363.516 92.0469C363.297 91.5312 362.961 91.1484 362.508 90.8984C362.07 90.6328 361.516 90.5 360.844 90.5C360.297 90.5 359.781 90.6328 359.297 90.8984C358.828 91.1641 358.445 91.5781 358.148 92.1406C357.852 92.6875 357.688 93.4141 357.656 94.3203H349.711C349.758 91.9922 350.273 90.1016 351.258 88.6484C352.258 87.1797 353.586 86.1094 355.242 85.4375C356.914 84.75 358.781 84.4062 360.844 84.4062C363.125 84.4062 365.086 84.7578 366.727 85.4609C368.367 86.1641 369.625 87.2109 370.5 88.6016C371.375 89.9766 371.812 91.6719 371.812 93.6875C371.812 95.0312 371.555 96.2031 371.039 97.2031C370.539 98.1875 369.859 99.1094 369 99.9688C368.156 100.812 367.211 101.719 366.164 102.688C365.258 103.484 364.641 104.297 364.312 105.125C363.984 105.938 363.805 106.961 363.773 108.195ZM356.086 115.32C356.086 114.195 356.492 113.258 357.305 112.508C358.117 111.742 359.172 111.359 360.469 111.359C361.766 111.359 362.82 111.742 363.633 112.508C364.445 113.258 364.852 114.195 364.852 115.32C364.852 116.445 364.445 117.391 363.633 118.156C362.82 118.906 361.766 119.281 360.469 119.281C359.172 119.281 358.117 118.906 357.305 118.156C356.492 117.391 356.086 116.445 356.086 115.32Z" fill="black"/>
<path d="M1134 0H1348C1356.28 0 1363 6.71573 1363 15V148C1363 156.284 1356.28 163 1348 163H1134V0Z" fill="#9E002D"/>
<path d="M1260.62 78.8847C1263.81 78.8847 1266.93 79.805 1269.59 81.5293C1272.25 83.2536 1274.32 85.7044 1275.54 88.5718C1276.76 91.4391 1277.08 94.5943 1276.46 97.6383C1275.84 100.682 1274.3 103.478 1272.04 105.673C1269.78 107.868 1266.9 109.362 1263.77 109.968C1260.63 110.573 1257.39 110.262 1254.43 109.075C1251.48 107.887 1248.96 105.876 1247.18 103.295C1245.41 100.714 1244.46 97.6806 1244.46 94.5769C1244.46 90.4151 1246.16 86.4237 1249.19 83.4808C1252.22 80.538 1256.33 78.8847 1260.62 78.8847ZM1260.62 73.6539C1256.36 73.6539 1252.19 74.881 1248.65 77.1801C1245.11 79.4791 1242.35 82.7469 1240.72 86.57C1239.09 90.3932 1238.66 94.6001 1239.49 98.6588C1240.32 102.717 1242.37 106.446 1245.39 109.372C1248.4 112.298 1252.24 114.291 1256.41 115.098C1260.59 115.905 1264.92 115.491 1268.86 113.907C1272.79 112.324 1276.16 109.642 1278.52 106.201C1280.89 102.76 1282.15 98.7151 1282.15 94.5769C1282.15 89.0278 1279.88 83.706 1275.85 79.7821C1271.81 75.8583 1266.33 73.6539 1260.62 73.6539Z" fill="white"/>
<path d="M1274.08 47.5H1220.23C1218.8 47.5 1217.43 48.0511 1216.42 49.0321C1215.41 50.013 1214.85 51.3435 1214.85 52.7307V105.038C1214.85 106.426 1215.41 107.756 1216.42 108.737C1217.43 109.718 1218.8 110.269 1220.23 110.269H1231V105.038H1220.23V68.423H1279.46V52.7307C1279.46 51.3435 1278.89 50.013 1277.88 49.0321C1276.87 48.0511 1275.5 47.5 1274.08 47.5ZM1220.23 63.1922V52.7307H1274.08V63.1922H1220.23Z" fill="white"/>
<path d="M1255.23 86.731V102.423L1268.69 94.5771L1255.23 86.731Z" fill="white"/>
</svg>
