<svg width="1363" height="163" viewBox="0 0 1363 163" fill="none" xmlns="http://www.w3.org/2000/svg">
<path d="M0 15C0 6.71573 6.71573 0 15 0H37V163H15C6.71573 163 0 156.284 0 148V15Z" fill="#424242"/>
<rect width="1097" height="163" transform="translate(37)" fill="#F0F0F0"/>
<path d="M96.1289 43.9375H99.1055L103.488 56.4648L107.871 43.9375H110.848L104.684 61H102.293L96.1289 43.9375ZM94.5234 43.9375H97.4883L98.0273 56.1484V61H94.5234V43.9375ZM109.488 43.9375H112.465V61H108.949V56.1484L109.488 43.9375ZM122.836 57.9648V48.3203H126.211V61H123.035L122.836 57.9648ZM123.211 55.3633L124.207 55.3398C124.207 56.1836 124.109 56.9688 123.914 57.6953C123.719 58.4141 123.426 59.0391 123.035 59.5703C122.645 60.0938 122.152 60.5039 121.559 60.8008C120.965 61.0898 120.266 61.2344 119.461 61.2344C118.844 61.2344 118.273 61.1484 117.75 60.9766C117.234 60.7969 116.789 60.5195 116.414 60.1445C116.047 59.7617 115.758 59.2734 115.547 58.6797C115.344 58.0781 115.242 57.3555 115.242 56.5117V48.3203H118.617V56.5352C118.617 56.9102 118.66 57.2266 118.746 57.4844C118.84 57.7422 118.969 57.9531 119.133 58.1172C119.297 58.2812 119.488 58.3984 119.707 58.4688C119.934 58.5391 120.184 58.5742 120.457 58.5742C121.152 58.5742 121.699 58.4336 122.098 58.1523C122.504 57.8711 122.789 57.4883 122.953 57.0039C123.125 56.5117 123.211 55.9648 123.211 55.3633ZM135.645 57.4961C135.645 57.2539 135.574 57.0352 135.434 56.8398C135.293 56.6445 135.031 56.4648 134.648 56.3008C134.273 56.1289 133.73 55.9727 133.02 55.832C132.379 55.6914 131.781 55.5156 131.227 55.3047C130.68 55.0859 130.203 54.8242 129.797 54.5195C129.398 54.2148 129.086 53.8555 128.859 53.4414C128.633 53.0195 128.52 52.5391 128.52 52C128.52 51.4688 128.633 50.9688 128.859 50.5C129.094 50.0312 129.426 49.6172 129.855 49.2578C130.293 48.8906 130.824 48.6055 131.449 48.4023C132.082 48.1914 132.793 48.0859 133.582 48.0859C134.684 48.0859 135.629 48.2617 136.418 48.6133C137.215 48.9648 137.824 49.4492 138.246 50.0664C138.676 50.6758 138.891 51.3711 138.891 52.1523H135.516C135.516 51.8242 135.445 51.5312 135.305 51.2734C135.172 51.0078 134.961 50.8008 134.672 50.6523C134.391 50.4961 134.023 50.418 133.57 50.418C133.195 50.418 132.871 50.4844 132.598 50.6172C132.324 50.7422 132.113 50.9141 131.965 51.1328C131.824 51.3438 131.754 51.5781 131.754 51.8359C131.754 52.0312 131.793 52.207 131.871 52.3633C131.957 52.5117 132.094 52.6484 132.281 52.7734C132.469 52.8984 132.711 53.0156 133.008 53.125C133.312 53.2266 133.688 53.3203 134.133 53.4062C135.047 53.5938 135.863 53.8398 136.582 54.1445C137.301 54.4414 137.871 54.8477 138.293 55.3633C138.715 55.8711 138.926 56.5391 138.926 57.3672C138.926 57.9297 138.801 58.4453 138.551 58.9141C138.301 59.3828 137.941 59.793 137.473 60.1445C137.004 60.4883 136.441 60.7578 135.785 60.9531C135.137 61.1406 134.406 61.2344 133.594 61.2344C132.414 61.2344 131.414 61.0234 130.594 60.6016C129.781 60.1797 129.164 59.6445 128.742 58.9961C128.328 58.3398 128.121 57.668 128.121 56.9805H131.32C131.336 57.4414 131.453 57.8125 131.672 58.0938C131.898 58.375 132.184 58.5781 132.527 58.7031C132.879 58.8281 133.258 58.8906 133.664 58.8906C134.102 58.8906 134.465 58.832 134.754 58.7148C135.043 58.5898 135.262 58.4258 135.41 58.2227C135.566 58.0117 135.645 57.7695 135.645 57.4961ZM146.953 61.2344C145.969 61.2344 145.086 61.0781 144.305 60.7656C143.523 60.4453 142.859 60.0039 142.312 59.4414C141.773 58.8789 141.359 58.2266 141.07 57.4844C140.781 56.7344 140.637 55.9375 140.637 55.0938V54.625C140.637 53.6641 140.773 52.7852 141.047 51.9883C141.32 51.1914 141.711 50.5 142.219 49.9141C142.734 49.3281 143.359 48.8789 144.094 48.5664C144.828 48.2461 145.656 48.0859 146.578 48.0859C147.477 48.0859 148.273 48.2344 148.969 48.5312C149.664 48.8281 150.246 49.25 150.715 49.7969C151.191 50.3438 151.551 51 151.793 51.7656C152.035 52.5234 152.156 53.3672 152.156 54.2969V55.7031H142.078V53.4531H148.84V53.1953C148.84 52.7266 148.754 52.3086 148.582 51.9414C148.418 51.5664 148.168 51.2695 147.832 51.0508C147.496 50.832 147.066 50.7227 146.543 50.7227C146.098 50.7227 145.715 50.8203 145.395 51.0156C145.074 51.2109 144.812 51.4844 144.609 51.8359C144.414 52.1875 144.266 52.6016 144.164 53.0781C144.07 53.5469 144.023 54.0625 144.023 54.625V55.0938C144.023 55.6016 144.094 56.0703 144.234 56.5C144.383 56.9297 144.59 57.3008 144.855 57.6133C145.129 57.9258 145.457 58.168 145.84 58.3398C146.23 58.5117 146.672 58.5977 147.164 58.5977C147.773 58.5977 148.34 58.4805 148.863 58.2461C149.395 58.0039 149.852 57.6406 150.234 57.1562L151.875 58.9375C151.609 59.3203 151.246 59.6875 150.785 60.0391C150.332 60.3906 149.785 60.6797 149.145 60.9062C148.504 61.125 147.773 61.2344 146.953 61.2344ZM157.453 51.0859V61H154.078V48.3203H157.254L157.453 51.0859ZM161.273 48.2383L161.215 51.3672C161.051 51.3438 160.852 51.3242 160.617 51.3086C160.391 51.2852 160.184 51.2734 159.996 51.2734C159.52 51.2734 159.105 51.3359 158.754 51.4609C158.41 51.5781 158.121 51.7539 157.887 51.9883C157.66 52.2227 157.488 52.5078 157.371 52.8438C157.262 53.1797 157.199 53.5625 157.184 53.9922L156.504 53.7812C156.504 52.9609 156.586 52.207 156.75 51.5195C156.914 50.8242 157.152 50.2188 157.465 49.7031C157.785 49.1875 158.176 48.7891 158.637 48.5078C159.098 48.2266 159.625 48.0859 160.219 48.0859C160.406 48.0859 160.598 48.1016 160.793 48.1328C160.988 48.1562 161.148 48.1914 161.273 48.2383Z" fill="#888888"/>
<path d="M114.117 84.875H122.344V107.164C122.344 109.82 121.789 112.07 120.68 113.914C119.57 115.742 118.016 117.125 116.016 118.062C114.016 119 111.664 119.469 108.961 119.469C106.289 119.469 103.938 119 101.906 118.062C99.8906 117.125 98.3125 115.742 97.1719 113.914C96.0469 112.07 95.4844 109.82 95.4844 107.164V84.875H103.734V107.164C103.734 108.57 103.938 109.719 104.344 110.609C104.75 111.484 105.344 112.125 106.125 112.531C106.906 112.938 107.852 113.141 108.961 113.141C110.086 113.141 111.031 112.938 111.797 112.531C112.562 112.125 113.141 111.484 113.531 110.609C113.922 109.719 114.117 108.57 114.117 107.164V84.875ZM136.266 84.875V119H128.062V84.875H136.266ZM172.523 84.875H180.75V107.164C180.75 109.82 180.195 112.07 179.086 113.914C177.977 115.742 176.422 117.125 174.422 118.062C172.422 119 170.07 119.469 167.367 119.469C164.695 119.469 162.344 119 160.312 118.062C158.297 117.125 156.719 115.742 155.578 113.914C154.453 112.07 153.891 109.82 153.891 107.164V84.875H162.141V107.164C162.141 108.57 162.344 109.719 162.75 110.609C163.156 111.484 163.75 112.125 164.531 112.531C165.312 112.938 166.258 113.141 167.367 113.141C168.492 113.141 169.438 112.938 170.203 112.531C170.969 112.125 171.547 111.484 171.938 110.609C172.328 109.719 172.523 108.57 172.523 107.164V84.875ZM193.078 84.875L198.656 96.2188L204.234 84.875H213.609L204.094 101.797L213.867 119H204.398L198.656 107.445L192.914 119H183.422L193.219 101.797L183.68 84.875H193.078Z" fill="black"/>
<path d="M1134 0H1348C1356.28 0 1363 6.71573 1363 15V148C1363 156.284 1356.28 163 1348 163H1134V0Z" fill="#FFB84F"/>
<path d="M1248.5 111.917C1244.51 111.917 1240.55 111.13 1236.86 109.601C1233.17 108.073 1229.82 105.832 1226.99 103.008C1221.29 97.3036 1218.08 89.567 1218.08 81.5C1218.08 73.433 1221.29 65.6964 1226.99 59.9922C1232.7 54.2879 1240.43 51.0833 1248.5 51.0833C1265.23 51.0833 1278.92 63.25 1278.92 78.4583C1278.92 83.2985 1276.99 87.9405 1273.57 91.363C1270.15 94.7856 1265.51 96.7083 1260.67 96.7083H1255.19C1254.28 96.7083 1253.67 97.3167 1253.67 98.2292C1253.67 98.5333 1253.97 98.8375 1253.97 99.1417C1255.19 100.662 1255.8 102.487 1255.8 104.312C1256.1 108.571 1252.76 111.917 1248.5 111.917ZM1248.5 57.1667C1242.05 57.1667 1235.86 59.7303 1231.29 64.2937C1226.73 68.8571 1224.17 75.0464 1224.17 81.5C1224.17 87.9536 1226.73 94.1429 1231.29 98.7063C1235.86 103.27 1242.05 105.833 1248.5 105.833C1249.41 105.833 1250.02 105.225 1250.02 104.312C1250.02 103.704 1249.72 103.4 1249.72 103.096C1248.5 101.575 1247.89 100.054 1247.89 98.2292C1247.89 93.9708 1251.24 90.625 1255.5 90.625H1260.67C1263.89 90.625 1266.99 89.3432 1269.27 87.0615C1271.55 84.7798 1272.83 81.6851 1272.83 78.4583C1272.83 66.5958 1261.88 57.1667 1248.5 57.1667ZM1231.77 75.4167C1234.2 75.4167 1236.33 77.5458 1236.33 79.9792C1236.33 82.4125 1234.2 84.5417 1231.77 84.5417C1229.34 84.5417 1227.21 82.4125 1227.21 79.9792C1227.21 77.5458 1229.34 75.4167 1231.77 75.4167ZM1240.9 63.25C1243.33 63.25 1245.46 65.3792 1245.46 67.8125C1245.46 70.2458 1243.33 72.375 1240.9 72.375C1238.46 72.375 1236.33 70.2458 1236.33 67.8125C1236.33 65.3792 1238.46 63.25 1240.9 63.25ZM1256.1 63.25C1258.54 63.25 1260.67 65.3792 1260.67 67.8125C1260.67 70.2458 1258.54 72.375 1256.1 72.375C1253.67 72.375 1251.54 70.2458 1251.54 67.8125C1251.54 65.3792 1253.67 63.25 1256.1 63.25ZM1265.23 75.4167C1267.66 75.4167 1269.79 77.5458 1269.79 79.9792C1269.79 82.4125 1267.66 84.5417 1265.23 84.5417C1262.8 84.5417 1260.67 82.4125 1260.67 79.9792C1260.67 77.5458 1262.8 75.4167 1265.23 75.4167Z" fill="white"/>
</svg>
