<svg width="1363" height="163" viewBox="0 0 1363 163" fill="none" xmlns="http://www.w3.org/2000/svg">
<path d="M0 15C0 6.71573 6.71573 0 15 0H37V163H15C6.71573 163 0 156.284 0 148V15Z" fill="#424242"/>
<rect width="1097" height="163" transform="translate(37)" fill="#F0F0F0"/>
<path d="M96.1289 43.9375H99.1055L103.488 56.4648L107.871 43.9375H110.848L104.684 61H102.293L96.1289 43.9375ZM94.5234 43.9375H97.4883L98.0273 56.1484V61H94.5234V43.9375ZM109.488 43.9375H112.465V61H108.949V56.1484L109.488 43.9375ZM122.836 57.9648V48.3203H126.211V61H123.035L122.836 57.9648ZM123.211 55.3633L124.207 55.3398C124.207 56.1836 124.109 56.9688 123.914 57.6953C123.719 58.4141 123.426 59.0391 123.035 59.5703C122.645 60.0938 122.152 60.5039 121.559 60.8008C120.965 61.0898 120.266 61.2344 119.461 61.2344C118.844 61.2344 118.273 61.1484 117.75 60.9766C117.234 60.7969 116.789 60.5195 116.414 60.1445C116.047 59.7617 115.758 59.2734 115.547 58.6797C115.344 58.0781 115.242 57.3555 115.242 56.5117V48.3203H118.617V56.5352C118.617 56.9102 118.66 57.2266 118.746 57.4844C118.84 57.7422 118.969 57.9531 119.133 58.1172C119.297 58.2812 119.488 58.3984 119.707 58.4688C119.934 58.5391 120.184 58.5742 120.457 58.5742C121.152 58.5742 121.699 58.4336 122.098 58.1523C122.504 57.8711 122.789 57.4883 122.953 57.0039C123.125 56.5117 123.211 55.9648 123.211 55.3633ZM135.645 57.4961C135.645 57.2539 135.574 57.0352 135.434 56.8398C135.293 56.6445 135.031 56.4648 134.648 56.3008C134.273 56.1289 133.73 55.9727 133.02 55.832C132.379 55.6914 131.781 55.5156 131.227 55.3047C130.68 55.0859 130.203 54.8242 129.797 54.5195C129.398 54.2148 129.086 53.8555 128.859 53.4414C128.633 53.0195 128.52 52.5391 128.52 52C128.52 51.4688 128.633 50.9688 128.859 50.5C129.094 50.0312 129.426 49.6172 129.855 49.2578C130.293 48.8906 130.824 48.6055 131.449 48.4023C132.082 48.1914 132.793 48.0859 133.582 48.0859C134.684 48.0859 135.629 48.2617 136.418 48.6133C137.215 48.9648 137.824 49.4492 138.246 50.0664C138.676 50.6758 138.891 51.3711 138.891 52.1523H135.516C135.516 51.8242 135.445 51.5312 135.305 51.2734C135.172 51.0078 134.961 50.8008 134.672 50.6523C134.391 50.4961 134.023 50.418 133.57 50.418C133.195 50.418 132.871 50.4844 132.598 50.6172C132.324 50.7422 132.113 50.9141 131.965 51.1328C131.824 51.3438 131.754 51.5781 131.754 51.8359C131.754 52.0312 131.793 52.207 131.871 52.3633C131.957 52.5117 132.094 52.6484 132.281 52.7734C132.469 52.8984 132.711 53.0156 133.008 53.125C133.312 53.2266 133.688 53.3203 134.133 53.4062C135.047 53.5938 135.863 53.8398 136.582 54.1445C137.301 54.4414 137.871 54.8477 138.293 55.3633C138.715 55.8711 138.926 56.5391 138.926 57.3672C138.926 57.9297 138.801 58.4453 138.551 58.9141C138.301 59.3828 137.941 59.793 137.473 60.1445C137.004 60.4883 136.441 60.7578 135.785 60.9531C135.137 61.1406 134.406 61.2344 133.594 61.2344C132.414 61.2344 131.414 61.0234 130.594 60.6016C129.781 60.1797 129.164 59.6445 128.742 58.9961C128.328 58.3398 128.121 57.668 128.121 56.9805H131.32C131.336 57.4414 131.453 57.8125 131.672 58.0938C131.898 58.375 132.184 58.5781 132.527 58.7031C132.879 58.8281 133.258 58.8906 133.664 58.8906C134.102 58.8906 134.465 58.832 134.754 58.7148C135.043 58.5898 135.262 58.4258 135.41 58.2227C135.566 58.0117 135.645 57.7695 135.645 57.4961ZM146.953 61.2344C145.969 61.2344 145.086 61.0781 144.305 60.7656C143.523 60.4453 142.859 60.0039 142.312 59.4414C141.773 58.8789 141.359 58.2266 141.07 57.4844C140.781 56.7344 140.637 55.9375 140.637 55.0938V54.625C140.637 53.6641 140.773 52.7852 141.047 51.9883C141.32 51.1914 141.711 50.5 142.219 49.9141C142.734 49.3281 143.359 48.8789 144.094 48.5664C144.828 48.2461 145.656 48.0859 146.578 48.0859C147.477 48.0859 148.273 48.2344 148.969 48.5312C149.664 48.8281 150.246 49.25 150.715 49.7969C151.191 50.3438 151.551 51 151.793 51.7656C152.035 52.5234 152.156 53.3672 152.156 54.2969V55.7031H142.078V53.4531H148.84V53.1953C148.84 52.7266 148.754 52.3086 148.582 51.9414C148.418 51.5664 148.168 51.2695 147.832 51.0508C147.496 50.832 147.066 50.7227 146.543 50.7227C146.098 50.7227 145.715 50.8203 145.395 51.0156C145.074 51.2109 144.812 51.4844 144.609 51.8359C144.414 52.1875 144.266 52.6016 144.164 53.0781C144.07 53.5469 144.023 54.0625 144.023 54.625V55.0938C144.023 55.6016 144.094 56.0703 144.234 56.5C144.383 56.9297 144.59 57.3008 144.855 57.6133C145.129 57.9258 145.457 58.168 145.84 58.3398C146.23 58.5117 146.672 58.5977 147.164 58.5977C147.773 58.5977 148.34 58.4805 148.863 58.2461C149.395 58.0039 149.852 57.6406 150.234 57.1562L151.875 58.9375C151.609 59.3203 151.246 59.6875 150.785 60.0391C150.332 60.3906 149.785 60.6797 149.145 60.9062C148.504 61.125 147.773 61.2344 146.953 61.2344ZM157.453 51.0859V61H154.078V48.3203H157.254L157.453 51.0859ZM161.273 48.2383L161.215 51.3672C161.051 51.3438 160.852 51.3242 160.617 51.3086C160.391 51.2852 160.184 51.2734 159.996 51.2734C159.52 51.2734 159.105 51.3359 158.754 51.4609C158.41 51.5781 158.121 51.7539 157.887 51.9883C157.66 52.2227 157.488 52.5078 157.371 52.8438C157.262 53.1797 157.199 53.5625 157.184 53.9922L156.504 53.7812C156.504 52.9609 156.586 52.207 156.75 51.5195C156.914 50.8242 157.152 50.2188 157.465 49.7031C157.785 49.1875 158.176 48.7891 158.637 48.5078C159.098 48.2266 159.625 48.0859 160.219 48.0859C160.406 48.0859 160.598 48.1016 160.793 48.1328C160.988 48.1562 161.148 48.1914 161.273 48.2383Z" fill="#888888"/>
<path d="M114.117 84.875H122.344V107.164C122.344 109.82 121.789 112.07 120.68 113.914C119.57 115.742 118.016 117.125 116.016 118.062C114.016 119 111.664 119.469 108.961 119.469C106.289 119.469 103.938 119 101.906 118.062C99.8906 117.125 98.3125 115.742 97.1719 113.914C96.0469 112.07 95.4844 109.82 95.4844 107.164V84.875H103.734V107.164C103.734 108.57 103.938 109.719 104.344 110.609C104.75 111.484 105.344 112.125 106.125 112.531C106.906 112.938 107.852 113.141 108.961 113.141C110.086 113.141 111.031 112.938 111.797 112.531C112.562 112.125 113.141 111.484 113.531 110.609C113.922 109.719 114.117 108.57 114.117 107.164V84.875ZM134.906 99.0547V119H127.008V93.6406H134.414L134.906 99.0547ZM133.969 105.453L132.117 105.5C132.117 103.562 132.352 101.836 132.82 100.32C133.289 98.7891 133.953 97.4922 134.812 96.4297C135.672 95.3672 136.695 94.5625 137.883 94.0156C139.086 93.4531 140.422 93.1719 141.891 93.1719C143.062 93.1719 144.133 93.3438 145.102 93.6875C146.086 94.0312 146.93 94.5859 147.633 95.3516C148.352 96.1172 148.898 97.1328 149.273 98.3984C149.664 99.6484 149.859 101.195 149.859 103.039V119H141.914V103.016C141.914 102 141.773 101.227 141.492 100.695C141.211 100.148 140.805 99.7734 140.273 99.5703C139.742 99.3672 139.094 99.2656 138.328 99.2656C137.516 99.2656 136.828 99.4219 136.266 99.7344C135.703 100.047 135.25 100.484 134.906 101.047C134.578 101.594 134.336 102.242 134.18 102.992C134.039 103.742 133.969 104.562 133.969 105.453ZM162.586 93.6406V119H154.664V93.6406H162.586ZM154.195 87.1016C154.195 85.9766 154.602 85.0547 155.414 84.3359C156.227 83.6172 157.281 83.2578 158.578 83.2578C159.875 83.2578 160.93 83.6172 161.742 84.3359C162.555 85.0547 162.961 85.9766 162.961 87.1016C162.961 88.2266 162.555 89.1484 161.742 89.8672C160.93 90.5859 159.875 90.9453 158.578 90.9453C157.281 90.9453 156.227 90.5859 155.414 89.8672C154.602 89.1484 154.195 88.2266 154.195 87.1016ZM180.82 93.6406V99.125H165.539V93.6406H180.82ZM168.75 87.3359H176.648V110.727C176.648 111.398 176.727 111.922 176.883 112.297C177.039 112.656 177.305 112.914 177.68 113.07C178.07 113.211 178.586 113.281 179.227 113.281C179.68 113.281 180.055 113.273 180.352 113.258C180.648 113.227 180.93 113.188 181.195 113.141V118.789C180.523 119.008 179.82 119.172 179.086 119.281C178.352 119.406 177.57 119.469 176.742 119.469C175.055 119.469 173.609 119.203 172.406 118.672C171.219 118.141 170.312 117.305 169.688 116.164C169.062 115.023 168.75 113.539 168.75 111.711V87.3359ZM211.406 84.875V119H203.18V84.875H211.406ZM221.672 84.875V91.2266H193.148V84.875H221.672ZM234.961 119.469C232.898 119.469 231.055 119.148 229.43 118.508C227.805 117.852 226.43 116.953 225.305 115.812C224.195 114.672 223.344 113.359 222.75 111.875C222.172 110.391 221.883 108.82 221.883 107.164V106.273C221.883 104.414 222.141 102.695 222.656 101.117C223.172 99.5234 223.938 98.1328 224.953 96.9453C225.969 95.7578 227.242 94.8359 228.773 94.1797C230.305 93.5078 232.086 93.1719 234.117 93.1719C235.914 93.1719 237.523 93.4609 238.945 94.0391C240.367 94.6172 241.57 95.4453 242.555 96.5234C243.555 97.6016 244.312 98.9062 244.828 100.438C245.359 101.969 245.625 103.688 245.625 105.594V108.805H224.906V103.859H237.914V103.25C237.93 102.406 237.781 101.688 237.469 101.094C237.172 100.5 236.734 100.047 236.156 99.7344C235.578 99.4219 234.875 99.2656 234.047 99.2656C233.188 99.2656 232.477 99.4531 231.914 99.8281C231.367 100.203 230.938 100.719 230.625 101.375C230.328 102.016 230.117 102.758 229.992 103.602C229.867 104.445 229.805 105.336 229.805 106.273V107.164C229.805 108.102 229.93 108.953 230.18 109.719C230.445 110.484 230.82 111.141 231.305 111.688C231.805 112.219 232.398 112.633 233.086 112.93C233.789 113.227 234.586 113.375 235.477 113.375C236.555 113.375 237.617 113.172 238.664 112.766C239.711 112.359 240.609 111.688 241.359 110.75L244.945 115.016C244.43 115.75 243.695 116.461 242.742 117.148C241.805 117.836 240.68 118.398 239.367 118.836C238.055 119.258 236.586 119.469 234.961 119.469ZM262.125 111.875C262.125 111.438 261.977 111.062 261.68 110.75C261.398 110.422 260.898 110.125 260.18 109.859C259.461 109.578 258.453 109.297 257.156 109.016C255.922 108.75 254.758 108.398 253.664 107.961C252.586 107.523 251.641 106.992 250.828 106.367C250.016 105.742 249.375 105 248.906 104.141C248.453 103.281 248.227 102.297 248.227 101.188C248.227 100.109 248.453 99.0938 248.906 98.1406C249.375 97.1719 250.055 96.3203 250.945 95.5859C251.852 94.8359 252.953 94.25 254.25 93.8281C255.547 93.3906 257.023 93.1719 258.68 93.1719C260.961 93.1719 262.93 93.5234 264.586 94.2266C266.242 94.9141 267.516 95.8828 268.406 97.1328C269.312 98.3672 269.766 99.7969 269.766 101.422H261.867C261.867 100.781 261.758 100.234 261.539 99.7812C261.336 99.3281 261 98.9844 260.531 98.75C260.062 98.5 259.438 98.375 258.656 98.375C258.109 98.375 257.609 98.4766 257.156 98.6797C256.719 98.8828 256.367 99.1641 256.102 99.5234C255.836 99.8828 255.703 100.305 255.703 100.789C255.703 101.133 255.781 101.445 255.938 101.727C256.109 101.992 256.367 102.242 256.711 102.477C257.055 102.695 257.492 102.898 258.023 103.086C258.555 103.258 259.195 103.414 259.945 103.555C261.648 103.867 263.242 104.312 264.727 104.891C266.211 105.469 267.414 106.289 268.336 107.352C269.273 108.414 269.742 109.844 269.742 111.641C269.742 112.766 269.484 113.805 268.969 114.758C268.453 115.695 267.711 116.523 266.742 117.242C265.773 117.945 264.609 118.492 263.25 118.883C261.891 119.273 260.359 119.469 258.656 119.469C256.234 119.469 254.188 119.039 252.516 118.18C250.844 117.305 249.578 116.211 248.719 114.898C247.875 113.57 247.453 112.227 247.453 110.867H254.812C254.844 111.648 255.031 112.289 255.375 112.789C255.734 113.289 256.211 113.656 256.805 113.891C257.398 114.125 258.086 114.242 258.867 114.242C259.586 114.242 260.18 114.141 260.648 113.938C261.133 113.734 261.5 113.461 261.75 113.117C262 112.758 262.125 112.344 262.125 111.875ZM286.805 93.6406V99.125H271.523V93.6406H286.805ZM274.734 87.3359H282.633V110.727C282.633 111.398 282.711 111.922 282.867 112.297C283.023 112.656 283.289 112.914 283.664 113.07C284.055 113.211 284.57 113.281 285.211 113.281C285.664 113.281 286.039 113.273 286.336 113.258C286.633 113.227 286.914 113.188 287.18 113.141V118.789C286.508 119.008 285.805 119.172 285.07 119.281C284.336 119.406 283.555 119.469 282.727 119.469C281.039 119.469 279.594 119.203 278.391 118.672C277.203 118.141 276.297 117.305 275.672 116.164C275.047 115.023 274.734 113.539 274.734 111.711V87.3359ZM298.289 93.6406V119H290.367V93.6406H298.289ZM289.898 87.1016C289.898 85.9766 290.305 85.0547 291.117 84.3359C291.93 83.6172 292.984 83.2578 294.281 83.2578C295.578 83.2578 296.633 83.6172 297.445 84.3359C298.258 85.0547 298.664 85.9766 298.664 87.1016C298.664 88.2266 298.258 89.1484 297.445 89.8672C296.633 90.5859 295.578 90.9453 294.281 90.9453C292.984 90.9453 291.93 90.5859 291.117 89.8672C290.305 89.1484 289.898 88.2266 289.898 87.1016ZM310.922 99.0547V119H303.023V93.6406H310.43L310.922 99.0547ZM309.984 105.453L308.133 105.5C308.133 103.562 308.367 101.836 308.836 100.32C309.305 98.7891 309.969 97.4922 310.828 96.4297C311.688 95.3672 312.711 94.5625 313.898 94.0156C315.102 93.4531 316.438 93.1719 317.906 93.1719C319.078 93.1719 320.148 93.3438 321.117 93.6875C322.102 94.0312 322.945 94.5859 323.648 95.3516C324.367 96.1172 324.914 97.1328 325.289 98.3984C325.68 99.6484 325.875 101.195 325.875 103.039V119H317.93V103.016C317.93 102 317.789 101.227 317.508 100.695C317.227 100.148 316.82 99.7734 316.289 99.5703C315.758 99.3672 315.109 99.2656 314.344 99.2656C313.531 99.2656 312.844 99.4219 312.281 99.7344C311.719 100.047 311.266 100.484 310.922 101.047C310.594 101.594 310.352 102.242 310.195 102.992C310.055 103.742 309.984 104.562 309.984 105.453ZM346.195 93.6406H353.367V118.016C353.367 120.359 352.828 122.344 351.75 123.969C350.672 125.609 349.164 126.852 347.227 127.695C345.305 128.555 343.055 128.984 340.477 128.984C339.336 128.984 338.172 128.836 336.984 128.539C335.797 128.258 334.688 127.836 333.656 127.273C332.625 126.711 331.758 126.016 331.055 125.188L334.359 120.547C335 121.266 335.805 121.875 336.773 122.375C337.742 122.891 338.883 123.148 340.195 123.148C341.336 123.148 342.289 122.945 343.055 122.539C343.836 122.133 344.43 121.539 344.836 120.758C345.242 119.992 345.445 119.062 345.445 117.969V99.6406L346.195 93.6406ZM329.344 106.625V106.133C329.344 104.211 329.578 102.461 330.047 100.883C330.531 99.2891 331.219 97.9219 332.109 96.7812C333.016 95.625 334.109 94.7344 335.391 94.1094C336.672 93.4844 338.117 93.1719 339.727 93.1719C341.461 93.1719 342.883 93.5078 343.992 94.1797C345.117 94.8359 346.016 95.7578 346.688 96.9453C347.375 98.1328 347.906 99.5234 348.281 101.117C348.672 102.695 349 104.398 349.266 106.227V106.812C349 108.531 348.633 110.156 348.164 111.688C347.711 113.203 347.117 114.547 346.383 115.719C345.648 116.891 344.727 117.812 343.617 118.484C342.523 119.141 341.211 119.469 339.68 119.469C338.086 119.469 336.648 119.148 335.367 118.508C334.102 117.867 333.016 116.969 332.109 115.812C331.219 114.656 330.531 113.297 330.047 111.734C329.578 110.172 329.344 108.469 329.344 106.625ZM337.242 106.133V106.625C337.242 107.578 337.328 108.461 337.5 109.273C337.688 110.086 337.969 110.805 338.344 111.43C338.719 112.039 339.18 112.516 339.727 112.859C340.289 113.203 340.945 113.375 341.695 113.375C342.836 113.375 343.758 113.133 344.461 112.648C345.164 112.164 345.672 111.477 345.984 110.586C346.297 109.695 346.43 108.648 346.383 107.445V105.594C346.414 104.562 346.344 103.656 346.172 102.875C346 102.078 345.727 101.414 345.352 100.883C344.992 100.352 344.508 99.9531 343.898 99.6875C343.305 99.4062 342.586 99.2656 341.742 99.2656C341.008 99.2656 340.359 99.4375 339.797 99.7812C339.234 100.125 338.766 100.609 338.391 101.234C338.016 101.844 337.727 102.57 337.523 103.414C337.336 104.242 337.242 105.148 337.242 106.133Z" fill="black"/>
<path d="M1134 0H1348C1356.28 0 1363 6.71573 1363 15V148C1363 156.284 1356.28 163 1348 163H1134V0Z" fill="#FFB84F"/>
<path d="M1210.62 43.625H1286.38V119.375H1210.62V43.625Z" fill="white" fill-opacity="0.01"/>
<path d="M1276.91 72.0312V105.172C1276.91 107.787 1274.79 109.906 1272.17 109.906H1224.83C1222.21 109.906 1220.09 107.787 1220.09 105.172V57.8281C1220.09 55.2134 1222.21 53.0938 1224.83 53.0938H1261.12" stroke="white" stroke-width="7.24" stroke-linecap="round" stroke-linejoin="round"/>
<path d="M1232.72 75.1875L1248.5 87.8125L1276.91 53.0938" stroke="white" stroke-width="7.24" stroke-linecap="round" stroke-linejoin="round"/>
</svg>
